<?xml version="1.0" encoding="UTF-8" standalone="no"?>
<!-- Created with Inkscape (http://www.inkscape.org/) -->

<svg
   width="512"
   height="512"
   viewBox="0 0 512 512"
   version="1.1"
   id="svg1"
   inkscape:version="1.4.2 (f4327f4, 2025-05-13)"
   sodipodi:docname="favicon.svg"
   xmlns:inkscape="http://www.inkscape.org/namespaces/inkscape"
   xmlns:sodipodi="http://sodipodi.sourceforge.net/DTD/sodipodi-0.dtd"
   xmlns="http://www.w3.org/2000/svg"
   xmlns:svg="http://www.w3.org/2000/svg">
  <sodipodi:namedview
     id="namedview1"
     pagecolor="#ffffff"
     bordercolor="#666666"
     borderopacity="1.0"
     inkscape:showpageshadow="2"
     inkscape:pageopacity="0.0"
     inkscape:pagecheckerboard="0"
     inkscape:deskcolor="#d1d1d1"
     inkscape:document-units="px"
     inkscape:zoom="0.27863045"
     inkscape:cx="-260.20128"
     inkscape:cy="206.36653"
     inkscape:window-width="1920"
     inkscape:window-height="1009"
     inkscape:window-x="-8"
     inkscape:window-y="44"
     inkscape:window-maximized="1"
     inkscape:current-layer="layer1" />
  <defs
     id="defs1" />
  <g
     inkscape:label="Layer 1"
     inkscape:groupmode="layer"
     id="layer1">
    <g
       id="path1"
       transform="matrix(10.746387,0,0,10.761012,-949.60521,-394.91539)">
      <g
         id="path3-3"
         style="opacity:1"
         transform="translate(-0.37298127,-4.3941917)">
        <path
           id="path5"
           style="font-size:35.4915px;line-height:1.25;font-family:'Bagel Fat One';-inkscape-font-specification:'Bagel Fat One';baseline-shift:baseline;display:inline;overflow:visible;vector-effect:none;fill:#bcf51c;fill-opacity:1;stroke-linecap:square;stroke-linejoin:round;paint-order:markers stroke fill;enable-background:accumulate;stop-color:#000000;stop-opacity:1"
           d="m 116.17904,48.021094 c -0.004,0.0033 -0.008,0.0065 -0.0117,0.0098 -0.86677,0.8163 -1.60218,1.764093 -2.25782,2.759766 -0.61179,-1.852272 -1.75084,-3.666265 -3.43359,-4.6875 -2.46872,-1.518553 -5.42414,-1.514961 -7.75195,-0.886719 -2.48669,0.666666 -4.874101,2.103913 -6.537112,4.152344 -0.0098,0.01168 -0.01958,0.0234 -0.0293,0.03516 -1.634128,2.046807 -2.51812,4.765711 -2.494141,7.347656 l 0.002,15.894532 c -4e-6,0.0039 -4e-6,0.0078 0,0.01172 0.0058,2.376324 0.195923,4.530901 0.679688,6.552735 0.0081,0.03393 0.0166,0.06779 0.02539,0.101562 0.624557,2.405583 -3.472749,-1.69389 -3.214385,-0.797617 0.387846,1.345448 1.758103,3.465813 3.080921,4.851456 0.858237,0.898999 1.910665,1.649536 3.051532,2.142683 7.414547,3.204985 11.072927,3.458951 16.070267,0.778093 1.90308,-1.006256 3.57757,-2.408635 4.96484,-4.064449 1.20873,-1.426678 2.36909,-3.016378 3.50391,-4.775391 l 0.006,-0.0078 c 2.57545,-4.00738 5.78234,-9.066085 7.64648,-11.898437 0.0151,-0.02332 0.0301,-0.04676 0.0449,-0.07031 0.74116,-1.165063 1.43218,-2.308052 2.07031,-3.429687 v -0.002 c 0.75487,-1.326867 1.37039,-2.688374 1.81055,-4.09961 0.76703,-2.455116 0.94797,-5.278432 -0.10365,-7.904315 -0.67328,-1.733866 -2.32771,-3.002705 -3.75586,-4.236329 -1.68013,-1.45128 -3.44507,-2.978077 -5.57321,-3.647013 -3.27816,-1.030422 -4.38561,2.678069 -7.79407,5.86967 z m -11.31641,26.707031 c 0.33465,0.507786 0.69252,1.015492 1.2168,1.511719 0.078,0.07328 0.1581,0.144279 0.24023,0.21289 0.18143,0.152682 0.40857,0.23428 0.60547,0.365235 -0.22377,0.02786 -0.23416,0.09754 -0.54687,0.09766 h -0.002 c -1.21981,-8.11e-4 -1.49222,-0.248451 -1.29102,-0.105469 0.0153,0.02674 -0.0182,-0.08442 -0.043,-0.160156 -3e-4,-0.0013 3e-4,-0.0046 0,-0.0059 -0.1003,-0.420153 -0.11326,-1.283088 -0.17969,-1.916016 z m 9.01172,3.150391 -0.17188,0.04687 c 0.0313,-0.0081 0.0605,-0.0345 0.0918,-0.04297 0.0231,-0.0065 0.0573,0.0028 0.0801,-0.0039 z m -10.79376,3.086283 c 1.46529,0.337772 0.2537,2.040684 0.94268,2.706037 1.71186,1.653135 -1.75788,3.630594 1.19329,4.348944 4.55235,1.10809 15.51287,0.47502 16.23176,0.4414 2.5051,-0.11714 5.1647,-0.28537 7.38051,-1.45984 2.159,-1.14436 4.28738,-2.891822 5.21396,-5.15286 0.8806,-2.148904 0.60516,-4.572592 -0.0937,-6.966378 0.75612,-1.78034 1.51444,-3.383468 1.89939,-5.249726 0.38496,-1.866268 0.58165,-3.849821 0.52573,-5.708339 -0.76335,0.446671 -1.53834,0.864033 -2.22968,1.641768 -0.69135,0.777734 -1.40715,2.029718 -2.08176,3.171436 -0.85444,-0.932985 -1.72224,-1.869231 -2.6021,-2.51523 -0.87986,-0.645987 -1.77169,-1.001679 -2.61846,-1.367604 -0.01,0.870166 -0.0648,1.750571 0.23894,3.087806 0.30373,1.337225 0.89354,3.038124 1.62175,4.370583 0.72818,1.332456 -2.98503,2.133785 -2.15642,3.032428 0.24994,1.009806 1.76954,2.151975 1.0543,2.934942 -1.06988,1.171209 -0.12252,1.906538 -1.6527,1.488291 -0.96257,-0.2631 -1.88936,-1.134448 -2.13088,-2.102655 -0.62204,-2.493666 2.18191,0.02031 3.05312,-2.397603 0.35744,-0.992026 0.44691,-7.888674 0.44691,-7.888674"
           sodipodi:nodetypes="ccccccccccscsasccccccccccascccccsscccccccccccssssscscscscsscssssc" />
      </g>
      <path
         d="m 97.784778,72.948342 c 1.465288,0.337772 -2.378233,4.580262 -1.689247,5.245615 1.711853,1.653135 0.01982,1.044844 3.825209,1.809364 4.59349,0.922852 15.51287,0.475024 16.23176,0.441407 2.5051,-0.117143 5.1647,-0.285371 7.38051,-1.459843 2.159,-1.144357 4.28738,-2.891824 5.21396,-5.152862 0.8806,-2.148904 0.60516,-4.572592 -0.0937,-6.966378 0.75612,-1.78034 1.51444,-3.383468 1.89939,-5.249726 0.38496,-1.866268 0.58165,-3.849821 0.52573,-5.708339 -0.76335,0.446671 -1.53834,0.864033 -2.22968,1.641768 -0.69135,0.777734 -1.40715,2.029718 -2.08176,3.171436 -0.85444,-0.932985 -1.72224,-1.869231 -2.6021,-2.51523 -0.87986,-0.645987 -1.77169,-1.001679 -2.61846,-1.367604 -0.01,0.870166 -0.0648,1.750571 0.23894,3.087806 0.30373,1.337225 0.89354,3.038124 1.62175,4.370583 0.72818,1.332456 1.52358,2.258854 2.35219,3.157497 0.24994,1.009806 0.22492,2.360423 -0.49032,3.14339 -1.06988,1.171209 -3.08651,1.573021 -4.61669,1.154774 -0.96257,-0.2631 -1.88936,-1.134448 -2.13088,-2.102655 -0.62204,-2.493666 1.43047,-4.940758 2.30168,-7.358672 0.35744,-0.992026 1.19835,-2.927605 1.19835,-2.927605"
         style="fill:#1797ff;fill-opacity:1;stroke:none;stroke-width:0.294683px;stroke-linecap:butt;stroke-linejoin:miter;stroke-opacity:1"
         id="path1-7"
         sodipodi:nodetypes="cssssscscscscsscaaaac" />
      <path
         style="font-size:35.4915px;line-height:1.25;font-family:'Bagel Fat One';-inkscape-font-specification:'Bagel Fat One';baseline-shift:baseline;display:inline;overflow:visible;fill:#ffffff;stroke:#1797ff;stroke-width:11;stroke-linecap:square;stroke-linejoin:round;stroke-dasharray:none;stroke-opacity:1;paint-order:markers stroke fill;enable-background:accumulate;stop-color:#000000;stop-opacity:1"
         d="m 101.08225,74.399682 c -1.983895,0 -3.507235,-0.384998 -4.570045,-1.154779 -1.033181,-0.76988 -1.738064,-1.880247 -2.114759,-3.331149 -0.347162,-1.450919 -0.523129,-3.21276 -0.528224,-5.285456 l -0.0023,-15.945144 c -0.01375,-1.48055 0.419074,-2.768583 1.293766,-3.864168 0.913475,-1.125182 2.145449,-1.895062 3.695995,-2.309641 1.422927,-0.384998 2.579627,-0.29609 3.470157,0.26631 0.89979,0.532952 1.33902,1.450869 1.31769,2.753718 l 0.0491,15.367763 c -0.0138,1.6582 0.2767,2.768567 0.87114,3.331199 0.6333,0.532952 1.45505,0.651441 2.46529,0.355202 1.03066,-0.266294 1.80385,-0.799478 2.31962,-1.598906 0.52501,-0.829125 0.8388,-2.072779 0.9413,-3.73093 0.24217,-2.961032 0.50813,-5.285456 0.79756,-6.97327 0.28946,-1.687748 0.58646,-3.020244 0.89115,-3.997389 0.51706,-1.658134 1.40438,-3.079455 2.66201,-4.263865 1.2965,-1.214007 2.89226,-1.821052 4.78732,-1.821052 1.86545,0 3.02346,0.607045 3.47398,1.821052 0.48935,1.18441 0.47553,2.605731 -0.0426,4.263865 -0.30462,0.977145 -0.75186,1.983904 -1.34154,3.020244 -0.58961,1.036406 -1.23292,2.102377 -1.92987,3.197945 -1.92349,2.922523 -5.11905,7.965169 -7.67857,11.947754 -1.03158,1.598989 -2.06237,3.005462 -3.09235,4.219469 -0.99113,1.184443 -2.10644,2.102361 -3.34594,2.753768 -1.20991,0.651442 -2.6735,0.977146 -4.39091,0.977146 z"
         id="path3"
         sodipodi:nodetypes="cccccccccccccccccsccccccccc" />
      <g
         id="path3-0"
         style="opacity:1"
         transform="translate(-50.403125,2.9104167)" />
    </g>
  </g>
</svg>
